<?xml version="1.0" encoding="UTF-8" standalone="no"?>
<!DOCTYPE svg PUBLIC "-//W3C//DTD SVG 1.1//EN"
 "http://www.w3.org/Graphics/SVG/1.1/DTD/svg11.dtd">
<!-- Generated by graphviz version 2.43.0 (0)
 -->
<!-- Title: sourcetree Pages: 1 -->
<svg width="942pt" height="1124pt"
 viewBox="0.00 0.00 942.00 1124.00" xmlns="http://www.w3.org/2000/svg" xmlns:xlink="http://www.w3.org/1999/xlink">
<g id="graph0" class="graph" transform="scale(1 1) rotate(0) translate(4 1120)">
<title>sourcetree</title>
<polygon fill="white" stroke="transparent" points="-4,4 -4,-1120 938,-1120 938,4 -4,4"/>
<!-- MulleObjCCalendarFoundation -->
<g id="node1" class="node">
<title>MulleObjCCalendarFoundation</title>
<polygon fill="yellow" stroke="black" points="237,-198 0,-198 0,-162 237,-162 237,-198"/>
<text text-anchor="middle" x="118.5" y="-176.3" font-family="Times,serif" font-size="14.00">MulleObjCCalendarFoundation</text>
</g>
<!-- MulleObjCOSFoundation -->
<g id="node20" class="node">
<title>MulleObjCOSFoundation</title>
<g id="a_node20"><a xlink:href="https://github.com/MulleFoundation/MulleObjCOSFoundation" xlink:title="MulleObjCOSFoundation">
<polygon fill="lightgrey" stroke="black" points="467,-198 273,-198 273,-162 467,-162 467,-198"/>
<text text-anchor="middle" x="370" y="-176.3" font-family="Times,serif" font-size="14.00">MulleObjCOSFoundation</text>
</a>
</g>
</g>
<!-- MulleObjCCalendarFoundation&#45;&gt;MulleObjCOSFoundation -->
<g id="edge14" class="edge">
<title>MulleObjCCalendarFoundation&#45;&gt;MulleObjCOSFoundation</title>
<path fill="none" stroke="black" d="M237.31,-180C245.74,-180 254.22,-180 262.58,-180"/>
<polygon fill="black" stroke="black" points="262.71,-183.5 272.71,-180 262.71,-176.5 262.71,-183.5"/>
</g>
<!-- BSD -->
<g id="node2" class="node">
<title>BSD</title>
<g id="a_node2"><a xlink:href="https://unknown.com/" xlink:title="BSD">
<polygon fill="lightgrey" stroke="black" points="651.5,-360 597.5,-360 597.5,-324 651.5,-324 651.5,-360"/>
<text text-anchor="middle" x="624.5" y="-338.3" font-family="Times,serif" font-size="14.00">BSD</text>
</a>
</g>
</g>
<!-- Darwin -->
<g id="node3" class="node">
<title>Darwin</title>
<g id="a_node3"><a xlink:href="https://unknown.com/" xlink:title="Darwin">
<polygon fill="lightgrey" stroke="black" points="658.5,-306 590.5,-306 590.5,-270 658.5,-270 658.5,-306"/>
<text text-anchor="middle" x="624.5" y="-284.3" font-family="Times,serif" font-size="14.00">Darwin</text>
</a>
</g>
</g>
<!-- FreeBSD -->
<g id="node4" class="node">
<title>FreeBSD</title>
<g id="a_node4"><a xlink:href="https://unknown.com/" xlink:title="FreeBSD">
<polygon fill="lightgrey" stroke="black" points="665,-252 584,-252 584,-216 665,-216 665,-252"/>
<text text-anchor="middle" x="624.5" y="-230.3" font-family="Times,serif" font-size="14.00">FreeBSD</text>
</a>
</g>
</g>
<!-- Linux -->
<g id="node5" class="node">
<title>Linux</title>
<g id="a_node5"><a xlink:href="https://unknown.com/" xlink:title="Linux">
<polygon fill="lightgrey" stroke="black" points="652.5,-198 596.5,-198 596.5,-162 652.5,-162 652.5,-198"/>
<text text-anchor="middle" x="624.5" y="-176.3" font-family="Times,serif" font-size="14.00">Linux</text>
</a>
</g>
</g>
<!-- MulleFoundationBase -->
<g id="node6" class="node">
<title>MulleFoundationBase</title>
<g id="a_node6"><a xlink:href="https://github.com/MulleFoundation/MulleFoundationBase" xlink:title="MulleFoundationBase">
<polygon fill="lightgrey" stroke="black" points="456,-738 284,-738 284,-702 456,-702 456,-738"/>
<text text-anchor="middle" x="370" y="-716.3" font-family="Times,serif" font-size="14.00">MulleFoundationBase</text>
</a>
</g>
</g>
<!-- MulleObjC -->
<g id="node7" class="node">
<title>MulleObjC</title>
<g id="a_node7"><a xlink:href="https://github.com/mulle-objc/MulleObjC" xlink:title="MulleObjC">
<polygon fill="lightgrey" stroke="black" points="670.5,-1062 578.5,-1062 578.5,-1026 670.5,-1026 670.5,-1062"/>
<text text-anchor="middle" x="624.5" y="-1040.3" font-family="Times,serif" font-size="14.00">MulleObjC</text>
</a>
</g>
</g>
<!-- MulleFoundationBase&#45;&gt;MulleObjC -->
<g id="edge1" class="edge">
<title>MulleFoundationBase&#45;&gt;MulleObjC</title>
<path fill="none" stroke="black" d="M373.38,-738.05C381.24,-790.15 411.35,-941.89 503,-1017 521.19,-1031.91 545.92,-1039 568.24,-1042.23"/>
<polygon fill="black" stroke="black" points="567.94,-1045.72 578.29,-1043.46 568.79,-1038.77 567.94,-1045.72"/>
</g>
<!-- MulleObjCArchiverFoundation -->
<g id="node8" class="node">
<title>MulleObjCArchiverFoundation</title>
<g id="a_node8"><a xlink:href="https://github.com/MulleFoundation/MulleObjCArchiverFoundation@*" xlink:title="MulleObjCArchiverFoundation">
<polygon fill="lightgrey" stroke="black" points="741,-1008 508,-1008 508,-972 741,-972 741,-1008"/>
<text text-anchor="middle" x="624.5" y="-986.3" font-family="Times,serif" font-size="14.00">MulleObjCArchiverFoundation</text>
</a>
</g>
</g>
<!-- MulleFoundationBase&#45;&gt;MulleObjCArchiverFoundation -->
<g id="edge2" class="edge">
<title>MulleFoundationBase&#45;&gt;MulleObjCArchiverFoundation</title>
<path fill="none" stroke="black" d="M375.28,-738.03C387.06,-783.54 424.46,-903.69 503,-963 504.81,-964.36 506.67,-965.66 508.58,-966.9"/>
<polygon fill="black" stroke="black" points="506.84,-969.93 517.25,-971.91 510.35,-963.87 506.84,-969.93"/>
</g>
<!-- MulleObjCContainerFoundation -->
<g id="node9" class="node">
<title>MulleObjCContainerFoundation</title>
<g id="a_node9"><a xlink:href="https://github.com/MulleFoundation/MulleObjCContainerFoundation@*" xlink:title="MulleObjCContainerFoundation">
<polygon fill="lightgrey" stroke="black" points="746,-954 503,-954 503,-918 746,-918 746,-954"/>
<text text-anchor="middle" x="624.5" y="-932.3" font-family="Times,serif" font-size="14.00">MulleObjCContainerFoundation</text>
</a>
</g>
</g>
<!-- MulleFoundationBase&#45;&gt;MulleObjCContainerFoundation -->
<g id="edge3" class="edge">
<title>MulleFoundationBase&#45;&gt;MulleObjCContainerFoundation</title>
<path fill="none" stroke="black" d="M378.24,-738.2C394.43,-776.39 437.35,-864.97 503,-909 505.3,-910.54 507.67,-912 510.11,-913.37"/>
<polygon fill="black" stroke="black" points="508.67,-916.57 519.17,-917.99 511.85,-910.33 508.67,-916.57"/>
</g>
<!-- MulleObjCKVCFoundation -->
<g id="node10" class="node">
<title>MulleObjCKVCFoundation</title>
<g id="a_node10"><a xlink:href="https://github.com/MulleFoundation/MulleObjCKVCFoundation@*" xlink:title="MulleObjCKVCFoundation">
<polygon fill="lightgrey" stroke="black" points="726,-900 523,-900 523,-864 726,-864 726,-900"/>
<text text-anchor="middle" x="624.5" y="-878.3" font-family="Times,serif" font-size="14.00">MulleObjCKVCFoundation</text>
</a>
</g>
</g>
<!-- MulleFoundationBase&#45;&gt;MulleObjCKVCFoundation -->
<g id="edge4" class="edge">
<title>MulleFoundationBase&#45;&gt;MulleObjCKVCFoundation</title>
<path fill="none" stroke="black" d="M383.27,-738.1C404.19,-767.5 449.75,-825.31 503,-855 506.43,-856.91 509.99,-858.69 513.63,-860.34"/>
<polygon fill="black" stroke="black" points="512.29,-863.57 522.87,-864.19 514.98,-857.11 512.29,-863.57"/>
</g>
<!-- MulleObjCLockFoundation -->
<g id="node11" class="node">
<title>MulleObjCLockFoundation</title>
<g id="a_node11"><a xlink:href="https://github.com/MulleFoundation/MulleObjCLockFoundation@*" xlink:title="MulleObjCLockFoundation">
<polygon fill="lightgrey" stroke="black" points="727.5,-846 521.5,-846 521.5,-810 727.5,-810 727.5,-846"/>
<text text-anchor="middle" x="624.5" y="-824.3" font-family="Times,serif" font-size="14.00">MulleObjCLockFoundation</text>
</a>
</g>
</g>
<!-- MulleFoundationBase&#45;&gt;MulleObjCLockFoundation -->
<g id="edge5" class="edge">
<title>MulleFoundationBase&#45;&gt;MulleObjCLockFoundation</title>
<path fill="none" stroke="black" d="M395,-738.12C420.5,-756.54 462.64,-784.63 503,-801 508.15,-803.09 513.5,-805.03 518.94,-806.84"/>
<polygon fill="black" stroke="black" points="518.25,-810.29 528.84,-809.94 520.34,-803.61 518.25,-810.29"/>
</g>
<!-- MulleObjCMathFoundation -->
<g id="node12" class="node">
<title>MulleObjCMathFoundation</title>
<g id="a_node12"><a xlink:href="https://github.com/MulleFoundation/MulleObjCMathFoundation@*" xlink:title="MulleObjCMathFoundation">
<polygon fill="lightgrey" stroke="black" points="729.5,-792 519.5,-792 519.5,-756 729.5,-756 729.5,-792"/>
<text text-anchor="middle" x="624.5" y="-770.3" font-family="Times,serif" font-size="14.00">MulleObjCMathFoundation</text>
</a>
</g>
</g>
<!-- MulleFoundationBase&#45;&gt;MulleObjCMathFoundation -->
<g id="edge6" class="edge">
<title>MulleFoundationBase&#45;&gt;MulleObjCMathFoundation</title>
<path fill="none" stroke="black" d="M455.43,-738.06C479.12,-743.12 505.02,-748.66 529.24,-753.84"/>
<polygon fill="black" stroke="black" points="528.64,-757.29 539.15,-755.96 530.1,-750.45 528.64,-757.29"/>
</g>
<!-- MulleObjCPlistFoundation -->
<g id="node13" class="node">
<title>MulleObjCPlistFoundation</title>
<g id="a_node13"><a xlink:href="https://github.com/MulleFoundation/MulleObjCPlistFoundation@*" xlink:title="MulleObjCPlistFoundation">
<polygon fill="lightgrey" stroke="black" points="727,-738 522,-738 522,-702 727,-702 727,-738"/>
<text text-anchor="middle" x="624.5" y="-716.3" font-family="Times,serif" font-size="14.00">MulleObjCPlistFoundation</text>
</a>
</g>
</g>
<!-- MulleFoundationBase&#45;&gt;MulleObjCPlistFoundation -->
<g id="edge7" class="edge">
<title>MulleFoundationBase&#45;&gt;MulleObjCPlistFoundation</title>
<path fill="none" stroke="black" d="M456.13,-720C473.97,-720 493.04,-720 511.69,-720"/>
<polygon fill="black" stroke="black" points="511.69,-723.5 521.69,-720 511.69,-716.5 511.69,-723.5"/>
</g>
<!-- MulleObjCRegexFoundation -->
<g id="node14" class="node">
<title>MulleObjCRegexFoundation</title>
<g id="a_node14"><a xlink:href="https://github.com/MulleFoundation/MulleObjCRegexFoundation" xlink:title="MulleObjCRegexFoundation">
<polygon fill="lightgrey" stroke="black" points="733,-684 516,-684 516,-648 733,-648 733,-684"/>
<text text-anchor="middle" x="624.5" y="-662.3" font-family="Times,serif" font-size="14.00">MulleObjCRegexFoundation</text>
</a>
</g>
</g>
<!-- MulleFoundationBase&#45;&gt;MulleObjCRegexFoundation -->
<g id="edge8" class="edge">
<title>MulleFoundationBase&#45;&gt;MulleObjCRegexFoundation</title>
<path fill="none" stroke="black" d="M455.43,-701.94C479.12,-696.88 505.02,-691.34 529.24,-686.16"/>
<polygon fill="black" stroke="black" points="530.1,-689.55 539.15,-684.04 528.64,-682.71 530.1,-689.55"/>
</g>
<!-- MulleObjCStandardFoundation -->
<g id="node15" class="node">
<title>MulleObjCStandardFoundation</title>
<g id="a_node15"><a xlink:href="https://github.com/MulleFoundation/MulleObjCStandardFoundation@*" xlink:title="MulleObjCStandardFoundation">
<polygon fill="lightgrey" stroke="black" points="744,-630 505,-630 505,-594 744,-594 744,-630"/>
<text text-anchor="middle" x="624.5" y="-608.3" font-family="Times,serif" font-size="14.00">MulleObjCStandardFoundation</text>
</a>
</g>
</g>
<!-- MulleFoundationBase&#45;&gt;MulleObjCStandardFoundation -->
<g id="edge9" class="edge">
<title>MulleFoundationBase&#45;&gt;MulleObjCStandardFoundation</title>
<path fill="none" stroke="black" d="M395,-701.88C420.5,-683.46 462.64,-655.37 503,-639 508.15,-636.91 513.5,-634.97 518.94,-633.16"/>
<polygon fill="black" stroke="black" points="520.34,-636.39 528.84,-630.06 518.25,-629.71 520.34,-636.39"/>
</g>
<!-- MulleObjCTimeFoundation -->
<g id="node16" class="node">
<title>MulleObjCTimeFoundation</title>
<g id="a_node16"><a xlink:href="https://github.com/MulleFoundation/MulleObjCTimeFoundation@*" xlink:title="MulleObjCTimeFoundation">
<polygon fill="lightgrey" stroke="black" points="728.5,-576 520.5,-576 520.5,-540 728.5,-540 728.5,-576"/>
<text text-anchor="middle" x="624.5" y="-554.3" font-family="Times,serif" font-size="14.00">MulleObjCTimeFoundation</text>
</a>
</g>
</g>
<!-- MulleFoundationBase&#45;&gt;MulleObjCTimeFoundation -->
<g id="edge10" class="edge">
<title>MulleFoundationBase&#45;&gt;MulleObjCTimeFoundation</title>
<path fill="none" stroke="black" d="M383.27,-701.9C404.19,-672.5 449.75,-614.69 503,-585 506.23,-583.2 509.58,-581.52 513.01,-579.95"/>
<polygon fill="black" stroke="black" points="514.4,-583.16 522.25,-576.05 511.68,-576.71 514.4,-583.16"/>
</g>
<!-- MulleObjCUnicodeFoundation -->
<g id="node17" class="node">
<title>MulleObjCUnicodeFoundation</title>
<g id="a_node17"><a xlink:href="https://github.com/MulleFoundation/MulleObjCUnicodeFoundation@*" xlink:title="MulleObjCUnicodeFoundation">
<polygon fill="lightgrey" stroke="black" points="740,-522 509,-522 509,-486 740,-486 740,-522"/>
<text text-anchor="middle" x="624.5" y="-500.3" font-family="Times,serif" font-size="14.00">MulleObjCUnicodeFoundation</text>
</a>
</g>
</g>
<!-- MulleFoundationBase&#45;&gt;MulleObjCUnicodeFoundation -->
<g id="edge11" class="edge">
<title>MulleFoundationBase&#45;&gt;MulleObjCUnicodeFoundation</title>
<path fill="none" stroke="black" d="M378.24,-701.8C394.43,-663.61 437.35,-575.03 503,-531 505.3,-529.46 507.67,-528 510.11,-526.63"/>
<polygon fill="black" stroke="black" points="511.85,-529.67 519.17,-522.01 508.67,-523.43 511.85,-529.67"/>
</g>
<!-- MulleObjCUUIDFoundation -->
<g id="node18" class="node">
<title>MulleObjCUUIDFoundation</title>
<g id="a_node18"><a xlink:href="https://github.com/MulleFoundation/MulleObjCUUIDFoundation@*" xlink:title="MulleObjCUUIDFoundation">
<polygon fill="lightgrey" stroke="black" points="731,-468 518,-468 518,-432 731,-432 731,-468"/>
<text text-anchor="middle" x="624.5" y="-446.3" font-family="Times,serif" font-size="14.00">MulleObjCUUIDFoundation</text>
</a>
</g>
</g>
<!-- MulleFoundationBase&#45;&gt;MulleObjCUUIDFoundation -->
<g id="edge12" class="edge">
<title>MulleFoundationBase&#45;&gt;MulleObjCUUIDFoundation</title>
<path fill="none" stroke="black" d="M375.28,-701.97C387.06,-656.46 424.46,-536.31 503,-477 504.88,-475.58 506.81,-474.24 508.8,-472.96"/>
<polygon fill="black" stroke="black" points="510.89,-475.8 517.83,-467.79 507.41,-469.72 510.89,-475.8"/>
</g>
<!-- MulleObjCValueFoundation -->
<g id="node19" class="node">
<title>MulleObjCValueFoundation</title>
<g id="a_node19"><a xlink:href="https://github.com/MulleFoundation/MulleObjCValueFoundation@*" xlink:title="MulleObjCValueFoundation">
<polygon fill="lightgrey" stroke="black" points="730.5,-414 518.5,-414 518.5,-378 730.5,-378 730.5,-414"/>
<text text-anchor="middle" x="624.5" y="-392.3" font-family="Times,serif" font-size="14.00">MulleObjCValueFoundation</text>
</a>
</g>
</g>
<!-- MulleFoundationBase&#45;&gt;MulleObjCValueFoundation -->
<g id="edge13" class="edge">
<title>MulleFoundationBase&#45;&gt;MulleObjCValueFoundation</title>
<path fill="none" stroke="black" d="M373.38,-701.95C381.24,-649.85 411.35,-498.11 503,-423 505.07,-421.31 507.22,-419.71 509.44,-418.21"/>
<polygon fill="black" stroke="black" points="511.56,-421.03 518.34,-412.9 507.97,-415.02 511.56,-421.03"/>
</g>
<!-- mulle&#45;objc&#45;cc -->
<g id="node21" class="node">
<title>mulle&#45;objc&#45;cc</title>
<g id="a_node21"><a xlink:href="https://github.com/mulle-cc/mulle-objc-cc" xlink:title="mulle&#45;objc&#45;cc">
<polygon fill="lightgrey" stroke="black" points="913,-1116 803,-1116 803,-1080 913,-1080 913,-1116"/>
<text text-anchor="middle" x="858" y="-1094.3" font-family="Times,serif" font-size="14.00">mulle&#45;objc&#45;cc</text>
</a>
</g>
</g>
<!-- MulleObjC&#45;&gt;mulle&#45;objc&#45;cc -->
<g id="edge15" class="edge">
<title>MulleObjC&#45;&gt;mulle&#45;objc&#45;cc</title>
<path fill="none" stroke="black" d="M670.69,-1054.54C705.47,-1062.65 754.01,-1073.98 792.82,-1083.03"/>
<polygon fill="black" stroke="black" points="792.45,-1086.54 802.98,-1085.4 794.04,-1079.72 792.45,-1086.54"/>
</g>
<!-- mulle&#45;objc&#45;debug -->
<g id="node22" class="node">
<title>mulle&#45;objc&#45;debug</title>
<g id="a_node22"><a xlink:href="https://github.com/mulle-objc/mulle-objc-debug" xlink:title="mulle&#45;objc&#45;debug">
<polygon fill="lightgrey" stroke="black" points="927.5,-1062 788.5,-1062 788.5,-1026 927.5,-1026 927.5,-1062"/>
<text text-anchor="middle" x="858" y="-1040.3" font-family="Times,serif" font-size="14.00">mulle&#45;objc&#45;debug</text>
</a>
</g>
</g>
<!-- MulleObjC&#45;&gt;mulle&#45;objc&#45;debug -->
<g id="edge16" class="edge">
<title>MulleObjC&#45;&gt;mulle&#45;objc&#45;debug</title>
<path fill="none" stroke="black" d="M670.69,-1044C701.1,-1044 742.04,-1044 777.79,-1044"/>
<polygon fill="black" stroke="black" points="778.21,-1047.5 788.21,-1044 778.21,-1040.5 778.21,-1047.5"/>
</g>
<!-- mulle&#45;objc&#45;runtime -->
<g id="node23" class="node">
<title>mulle&#45;objc&#45;runtime</title>
<g id="a_node23"><a xlink:href="https://github.com/mulle-objc/mulle-objc-runtime" xlink:title="mulle&#45;objc&#45;runtime">
<polygon fill="lightgrey" stroke="black" points="934,-1008 782,-1008 782,-972 934,-972 934,-1008"/>
<text text-anchor="middle" x="858" y="-986.3" font-family="Times,serif" font-size="14.00">mulle&#45;objc&#45;runtime</text>
</a>
</g>
</g>
<!-- MulleObjC&#45;&gt;mulle&#45;objc&#45;runtime -->
<g id="edge17" class="edge">
<title>MulleObjC&#45;&gt;mulle&#45;objc&#45;runtime</title>
<path fill="none" stroke="black" d="M670.75,-1034.07C693.37,-1029.05 721.16,-1022.8 746,-1017 755.03,-1014.89 764.46,-1012.65 773.85,-1010.4"/>
<polygon fill="black" stroke="black" points="774.7,-1013.79 783.6,-1008.05 773.06,-1006.99 774.7,-1013.79"/>
</g>
<!-- MulleObjCOSFoundation&#45;&gt;BSD -->
<g id="edge18" class="edge">
<title>MulleObjCOSFoundation&#45;&gt;BSD</title>
<path fill="none" stroke="black" d="M383.27,-198.1C404.19,-227.5 449.75,-285.31 503,-315 528.89,-329.43 561.96,-336.15 586.9,-339.28"/>
<polygon fill="black" stroke="black" points="586.72,-342.78 597.05,-340.41 587.5,-335.82 586.72,-342.78"/>
</g>
<!-- MulleObjCOSFoundation&#45;&gt;Darwin -->
<g id="edge19" class="edge">
<title>MulleObjCOSFoundation&#45;&gt;Darwin</title>
<path fill="none" stroke="black" d="M395,-198.12C420.5,-216.54 462.64,-244.63 503,-261 527.75,-271.04 556.94,-277.7 580.4,-281.9"/>
<polygon fill="black" stroke="black" points="579.95,-285.37 590.4,-283.6 581.13,-278.47 579.95,-285.37"/>
</g>
<!-- MulleObjCOSFoundation&#45;&gt;FreeBSD -->
<g id="edge20" class="edge">
<title>MulleObjCOSFoundation&#45;&gt;FreeBSD</title>
<path fill="none" stroke="black" d="M455.43,-198.06C494.67,-206.45 539.98,-216.14 573.66,-223.34"/>
<polygon fill="black" stroke="black" points="573.21,-226.82 583.72,-225.49 574.68,-219.98 573.21,-226.82"/>
</g>
<!-- MulleObjCOSFoundation&#45;&gt;Linux -->
<g id="edge21" class="edge">
<title>MulleObjCOSFoundation&#45;&gt;Linux</title>
<path fill="none" stroke="black" d="M467.18,-180C508.75,-180 554.94,-180 586.26,-180"/>
<polygon fill="black" stroke="black" points="586.28,-183.5 596.28,-180 586.28,-176.5 586.28,-183.5"/>
</g>
<!-- OSBase -->
<g id="node24" class="node">
<title>OSBase</title>
<g id="a_node24"><a xlink:href="https://unknown.com/" xlink:title="OSBase">
<polygon fill="lightgrey" stroke="black" points="660.5,-144 588.5,-144 588.5,-108 660.5,-108 660.5,-144"/>
<text text-anchor="middle" x="624.5" y="-122.3" font-family="Times,serif" font-size="14.00">OSBase</text>
</a>
</g>
</g>
<!-- MulleObjCOSFoundation&#45;&gt;OSBase -->
<g id="edge22" class="edge">
<title>MulleObjCOSFoundation&#45;&gt;OSBase</title>
<path fill="none" stroke="black" d="M455.43,-161.94C496.49,-153.16 544.19,-142.96 578.27,-135.67"/>
<polygon fill="black" stroke="black" points="579.34,-139.02 588.38,-133.51 577.87,-132.18 579.34,-139.02"/>
</g>
<!-- Posix -->
<g id="node25" class="node">
<title>Posix</title>
<g id="a_node25"><a xlink:href="https://unknown.com/" xlink:title="Posix">
<polygon fill="lightgrey" stroke="black" points="651.5,-90 597.5,-90 597.5,-54 651.5,-54 651.5,-90"/>
<text text-anchor="middle" x="624.5" y="-68.3" font-family="Times,serif" font-size="14.00">Posix</text>
</a>
</g>
</g>
<!-- MulleObjCOSFoundation&#45;&gt;Posix -->
<g id="edge23" class="edge">
<title>MulleObjCOSFoundation&#45;&gt;Posix</title>
<path fill="none" stroke="black" d="M395,-161.88C420.5,-143.46 462.64,-115.37 503,-99 530.29,-87.93 562.99,-80.96 587.44,-76.89"/>
<polygon fill="black" stroke="black" points="588.04,-80.34 597.37,-75.31 586.94,-73.42 588.04,-80.34"/>
</g>
<!-- Windows -->
<g id="node26" class="node">
<title>Windows</title>
<g id="a_node26"><a xlink:href="https://unknown.com/" xlink:title="Windows">
<polygon fill="lightgrey" stroke="black" points="665,-36 584,-36 584,0 665,0 665,-36"/>
<text text-anchor="middle" x="624.5" y="-14.3" font-family="Times,serif" font-size="14.00">Windows</text>
</a>
</g>
</g>
<!-- MulleObjCOSFoundation&#45;&gt;Windows -->
<g id="edge24" class="edge">
<title>MulleObjCOSFoundation&#45;&gt;Windows</title>
<path fill="none" stroke="black" d="M383.27,-161.9C404.19,-132.5 449.75,-74.69 503,-45 524.52,-33.01 550.99,-26.34 573.64,-22.63"/>
<polygon fill="black" stroke="black" points="574.37,-26.06 583.75,-21.13 573.34,-19.14 574.37,-26.06"/>
</g>
<!-- src/OSBase -->
<g id="node27" class="node">
<title>src/OSBase</title>
<polygon fill="lightgrey" stroke="black" points="167.5,-738 69.5,-738 69.5,-702 167.5,-702 167.5,-738"/>
<text text-anchor="middle" x="118.5" y="-716.3" font-family="Times,serif" font-size="14.00">src/OSBase</text>
</g>
<!-- src/OSBase&#45;&gt;MulleFoundationBase -->
<g id="edge25" class="edge">
<title>src/OSBase&#45;&gt;MulleFoundationBase</title>
<path fill="none" stroke="black" d="M167.61,-720C197.7,-720 237.51,-720 273.78,-720"/>
<polygon fill="black" stroke="black" points="273.91,-723.5 283.91,-720 273.91,-716.5 273.91,-723.5"/>
</g>
</g>
</svg>
