<?xml version="1.0" encoding="UTF-8" standalone="no"?>
<!DOCTYPE svg PUBLIC "-//W3C//DTD SVG 1.1//EN"
 "http://www.w3.org/Graphics/SVG/1.1/DTD/svg11.dtd">
<!-- Generated by graphviz version 2.43.0 (0)
 -->
<!-- Title: sourcetree Pages: 1 -->
<svg width="1301pt" height="368pt"
 viewBox="0.00 0.00 1301.00 368.00" xmlns="http://www.w3.org/2000/svg" xmlns:xlink="http://www.w3.org/1999/xlink">
<g id="graph0" class="graph" transform="scale(1 1) rotate(0) translate(4 364)">
<title>sourcetree</title>
<polygon fill="white" stroke="transparent" points="-4,4 -4,-364 1297,-364 1297,4 -4,4"/>
<!-- MulleObjCCalendarFoundation -->
<g id="node1" class="node">
<title>MulleObjCCalendarFoundation</title>
<polygon fill="yellow" stroke="black" points="237,-198 0,-198 0,-162 237,-162 237,-198"/>
<text text-anchor="middle" x="118.5" y="-176.3" font-family="Times,serif" font-size="14.00">MulleObjCCalendarFoundation</text>
</g>
<!-- MulleObjCOSFoundation -->
<g id="node2" class="node">
<title>MulleObjCOSFoundation</title>
<polygon fill="lightgrey" stroke="black" points="467,-198 273,-198 273,-162 467,-162 467,-198"/>
<text text-anchor="middle" x="370" y="-176.3" font-family="Times,serif" font-size="14.00">MulleObjCOSFoundation</text>
</g>
<!-- MulleObjCCalendarFoundation&#45;&gt;MulleObjCOSFoundation -->
<g id="edge1" class="edge">
<title>MulleObjCCalendarFoundation&#45;&gt;MulleObjCOSFoundation</title>
<path fill="none" stroke="black" d="M237.31,-180C245.74,-180 254.22,-180 262.58,-180"/>
<polygon fill="black" stroke="black" points="262.71,-183.5 272.71,-180 262.71,-176.5 262.71,-183.5"/>
</g>
<!-- src/BSD -->
<g id="node3" class="node">
<title>src/BSD</title>
<polygon fill="lightgrey" stroke="black" points="593.5,-360 519.5,-360 519.5,-324 593.5,-324 593.5,-360"/>
<text text-anchor="middle" x="556.5" y="-338.3" font-family="Times,serif" font-size="14.00">src/BSD</text>
</g>
<!-- MulleObjCOSFoundation&#45;&gt;src/BSD -->
<g id="edge2" class="edge">
<title>MulleObjCOSFoundation&#45;&gt;src/BSD</title>
<path fill="none" stroke="black" d="M385.68,-198.44C408.53,-226.29 455,-279.57 503,-315 505.44,-316.8 508.01,-318.54 510.66,-320.22"/>
<polygon fill="black" stroke="black" points="508.89,-323.24 519.28,-325.33 512.46,-317.22 508.89,-323.24"/>
</g>
<!-- src/Darwin -->
<g id="node4" class="node">
<title>src/Darwin</title>
<polygon fill="lightgrey" stroke="black" points="604,-306 509,-306 509,-270 604,-270 604,-306"/>
<text text-anchor="middle" x="556.5" y="-284.3" font-family="Times,serif" font-size="14.00">src/Darwin</text>
</g>
<!-- MulleObjCOSFoundation&#45;&gt;src/Darwin -->
<g id="edge3" class="edge">
<title>MulleObjCOSFoundation&#45;&gt;src/Darwin</title>
<path fill="none" stroke="black" d="M398.96,-198C425.43,-214.85 466.45,-240.43 503,-261 505.47,-262.39 508.02,-263.8 510.6,-265.2"/>
<polygon fill="black" stroke="black" points="508.97,-268.29 519.44,-269.91 512.27,-262.12 508.97,-268.29"/>
</g>
<!-- src/FreeBSD -->
<g id="node5" class="node">
<title>src/FreeBSD</title>
<polygon fill="lightgrey" stroke="black" points="610,-252 503,-252 503,-216 610,-216 610,-252"/>
<text text-anchor="middle" x="556.5" y="-230.3" font-family="Times,serif" font-size="14.00">src/FreeBSD</text>
</g>
<!-- MulleObjCOSFoundation&#45;&gt;src/FreeBSD -->
<g id="edge4" class="edge">
<title>MulleObjCOSFoundation&#45;&gt;src/FreeBSD</title>
<path fill="none" stroke="black" d="M432.69,-198.06C452.14,-203.75 473.63,-210.04 493.12,-215.74"/>
<polygon fill="black" stroke="black" points="492.23,-219.13 502.81,-218.58 494.2,-212.41 492.23,-219.13"/>
</g>
<!-- src/Linux -->
<g id="node6" class="node">
<title>src/Linux</title>
<polygon fill="lightgrey" stroke="black" points="598,-198 515,-198 515,-162 598,-162 598,-198"/>
<text text-anchor="middle" x="556.5" y="-176.3" font-family="Times,serif" font-size="14.00">src/Linux</text>
</g>
<!-- MulleObjCOSFoundation&#45;&gt;src/Linux -->
<g id="edge5" class="edge">
<title>MulleObjCOSFoundation&#45;&gt;src/Linux</title>
<path fill="none" stroke="black" d="M467.03,-180C480.04,-180 492.94,-180 504.7,-180"/>
<polygon fill="black" stroke="black" points="504.73,-183.5 514.73,-180 504.73,-176.5 504.73,-183.5"/>
</g>
<!-- src/OSBase -->
<g id="node7" class="node">
<title>src/OSBase</title>
<polygon fill="lightgrey" stroke="black" points="605.5,-144 507.5,-144 507.5,-108 605.5,-108 605.5,-144"/>
<text text-anchor="middle" x="556.5" y="-122.3" font-family="Times,serif" font-size="14.00">src/OSBase</text>
</g>
<!-- MulleObjCOSFoundation&#45;&gt;src/OSBase -->
<g id="edge6" class="edge">
<title>MulleObjCOSFoundation&#45;&gt;src/OSBase</title>
<path fill="none" stroke="black" d="M432.69,-161.94C453.58,-155.83 476.82,-149.03 497.42,-143"/>
<polygon fill="black" stroke="black" points="498.68,-146.28 507.29,-140.11 496.71,-139.56 498.68,-146.28"/>
</g>
<!-- src/Posix -->
<g id="node8" class="node">
<title>src/Posix</title>
<polygon fill="lightgrey" stroke="black" points="596.5,-90 516.5,-90 516.5,-54 596.5,-54 596.5,-90"/>
<text text-anchor="middle" x="556.5" y="-68.3" font-family="Times,serif" font-size="14.00">src/Posix</text>
</g>
<!-- MulleObjCOSFoundation&#45;&gt;src/Posix -->
<g id="edge7" class="edge">
<title>MulleObjCOSFoundation&#45;&gt;src/Posix</title>
<path fill="none" stroke="black" d="M398.96,-162C425.43,-145.15 466.45,-119.57 503,-99 505.47,-97.61 508.02,-96.2 510.6,-94.8"/>
<polygon fill="black" stroke="black" points="512.27,-97.88 519.44,-90.09 508.97,-91.71 512.27,-97.88"/>
</g>
<!-- src/Windows -->
<g id="node9" class="node">
<title>src/Windows</title>
<polygon fill="lightgrey" stroke="black" points="610,-36 503,-36 503,0 610,0 610,-36"/>
<text text-anchor="middle" x="556.5" y="-14.3" font-family="Times,serif" font-size="14.00">src/Windows</text>
</g>
<!-- MulleObjCOSFoundation&#45;&gt;src/Windows -->
<g id="edge8" class="edge">
<title>MulleObjCOSFoundation&#45;&gt;src/Windows</title>
<path fill="none" stroke="black" d="M385.68,-161.56C408.53,-133.71 455,-80.43 503,-45 504.61,-43.81 506.28,-42.65 507.98,-41.52"/>
<polygon fill="black" stroke="black" points="510.12,-44.31 516.79,-36.08 506.44,-38.36 510.12,-44.31"/>
</g>
<!-- MulleObjCStandardFoundation -->
<g id="node10" class="node">
<title>MulleObjCStandardFoundation</title>
<polygon fill="lightgrey" stroke="black" points="885,-225 646,-225 646,-189 885,-189 885,-225"/>
<text text-anchor="middle" x="765.5" y="-203.3" font-family="Times,serif" font-size="14.00">MulleObjCStandardFoundation</text>
</g>
<!-- src/OSBase&#45;&gt;MulleObjCStandardFoundation -->
<g id="edge18" class="edge">
<title>src/OSBase&#45;&gt;MulleObjCStandardFoundation</title>
<path fill="none" stroke="black" d="M594.65,-144.11C599.89,-146.95 605.13,-149.95 610,-153 626.95,-163.61 627.85,-171.59 646,-180 650.32,-182 654.8,-183.86 659.37,-185.58"/>
<polygon fill="black" stroke="black" points="658.29,-188.91 668.89,-188.94 660.62,-182.31 658.29,-188.91"/>
</g>
<!-- mulle&#45;mmap -->
<g id="node17" class="node">
<title>mulle&#45;mmap</title>
<polygon fill="lightgrey" stroke="black" points="818,-171 713,-171 713,-135 818,-135 818,-171"/>
<text text-anchor="middle" x="765.5" y="-149.3" font-family="Times,serif" font-size="14.00">mulle&#45;mmap</text>
</g>
<!-- src/OSBase&#45;&gt;mulle&#45;mmap -->
<g id="edge15" class="edge">
<title>src/OSBase&#45;&gt;mulle&#45;mmap</title>
<path fill="none" stroke="black" d="M605.51,-132.26C634.37,-136.03 671.41,-140.86 702.48,-144.91"/>
<polygon fill="black" stroke="black" points="702.4,-148.43 712.77,-146.25 703.3,-141.49 702.4,-148.43"/>
</g>
<!-- MulleObjCLockFoundation -->
<g id="node18" class="node">
<title>MulleObjCLockFoundation</title>
<polygon fill="lightgrey" stroke="black" points="868.5,-117 662.5,-117 662.5,-81 868.5,-81 868.5,-117"/>
<text text-anchor="middle" x="765.5" y="-95.3" font-family="Times,serif" font-size="14.00">MulleObjCLockFoundation</text>
</g>
<!-- src/OSBase&#45;&gt;MulleObjCLockFoundation -->
<g id="edge16" class="edge">
<title>src/OSBase&#45;&gt;MulleObjCLockFoundation</title>
<path fill="none" stroke="black" d="M605.51,-119.74C619.65,-117.89 635.76,-115.79 652.16,-113.65"/>
<polygon fill="black" stroke="black" points="652.94,-117.08 662.4,-112.32 652.03,-110.14 652.94,-117.08"/>
</g>
<!-- MulleObjCPlistFoundation -->
<g id="node19" class="node">
<title>MulleObjCPlistFoundation</title>
<polygon fill="lightgrey" stroke="black" points="868,-63 663,-63 663,-27 868,-27 868,-63"/>
<text text-anchor="middle" x="765.5" y="-41.3" font-family="Times,serif" font-size="14.00">MulleObjCPlistFoundation</text>
</g>
<!-- src/OSBase&#45;&gt;MulleObjCPlistFoundation -->
<g id="edge17" class="edge">
<title>src/OSBase&#45;&gt;MulleObjCPlistFoundation</title>
<path fill="none" stroke="black" d="M594.65,-107.89C599.89,-105.05 605.13,-102.05 610,-99 626.95,-88.39 627.85,-80.41 646,-72 650.32,-70 654.8,-68.14 659.37,-66.42"/>
<polygon fill="black" stroke="black" points="660.62,-69.69 668.89,-63.06 658.29,-63.09 660.62,-69.69"/>
</g>
<!-- MulleObjCContainerFoundation -->
<g id="node11" class="node">
<title>MulleObjCContainerFoundation</title>
<polygon fill="lightgrey" stroke="black" points="1164,-306 921,-306 921,-270 1164,-270 1164,-306"/>
<text text-anchor="middle" x="1042.5" y="-284.3" font-family="Times,serif" font-size="14.00">MulleObjCContainerFoundation</text>
</g>
<!-- MulleObjCStandardFoundation&#45;&gt;MulleObjCContainerFoundation -->
<g id="edge9" class="edge">
<title>MulleObjCStandardFoundation&#45;&gt;MulleObjCContainerFoundation</title>
<path fill="none" stroke="black" d="M813.72,-225.1C844.08,-236.34 884.53,-250.58 921,-261 928.93,-263.27 937.19,-265.46 945.51,-267.55"/>
<polygon fill="black" stroke="black" points="944.74,-270.97 955.29,-269.96 946.42,-264.17 944.74,-270.97"/>
</g>
<!-- MulleObjCTimeFoundation -->
<g id="node12" class="node">
<title>MulleObjCTimeFoundation</title>
<polygon fill="lightgrey" stroke="black" points="1146.5,-252 938.5,-252 938.5,-216 1146.5,-216 1146.5,-252"/>
<text text-anchor="middle" x="1042.5" y="-230.3" font-family="Times,serif" font-size="14.00">MulleObjCTimeFoundation</text>
</g>
<!-- MulleObjCStandardFoundation&#45;&gt;MulleObjCTimeFoundation -->
<g id="edge10" class="edge">
<title>MulleObjCStandardFoundation&#45;&gt;MulleObjCTimeFoundation</title>
<path fill="none" stroke="black" d="M885.12,-218.65C899.39,-220.05 913.94,-221.48 928.13,-222.87"/>
<polygon fill="black" stroke="black" points="928.1,-226.38 938.4,-223.88 928.79,-219.42 928.1,-226.38"/>
</g>
<!-- MulleObjCValueFoundation -->
<g id="node13" class="node">
<title>MulleObjCValueFoundation</title>
<polygon fill="lightgrey" stroke="black" points="1148.5,-198 936.5,-198 936.5,-162 1148.5,-162 1148.5,-198"/>
<text text-anchor="middle" x="1042.5" y="-176.3" font-family="Times,serif" font-size="14.00">MulleObjCValueFoundation</text>
</g>
<!-- MulleObjCStandardFoundation&#45;&gt;MulleObjCValueFoundation -->
<g id="edge11" class="edge">
<title>MulleObjCStandardFoundation&#45;&gt;MulleObjCValueFoundation</title>
<path fill="none" stroke="black" d="M885.12,-195.35C898.67,-194.02 912.48,-192.67 925.99,-191.34"/>
<polygon fill="black" stroke="black" points="926.65,-194.79 936.26,-190.33 925.96,-187.83 926.65,-194.79"/>
</g>
<!-- mulle&#45;unicode -->
<g id="node14" class="node">
<title>mulle&#45;unicode</title>
<polygon fill="lightgrey" stroke="black" points="1100.5,-144 984.5,-144 984.5,-108 1100.5,-108 1100.5,-144"/>
<text text-anchor="middle" x="1042.5" y="-122.3" font-family="Times,serif" font-size="14.00">mulle&#45;unicode</text>
</g>
<!-- MulleObjCStandardFoundation&#45;&gt;mulle&#45;unicode -->
<g id="edge12" class="edge">
<title>MulleObjCStandardFoundation&#45;&gt;mulle&#45;unicode</title>
<path fill="none" stroke="black" d="M862.11,-188.94C870,-186.33 877.72,-183.37 885,-180 903.15,-171.59 902.84,-161.37 921,-153 937.67,-145.31 956.68,-139.75 974.59,-135.74"/>
<polygon fill="black" stroke="black" points="975.34,-139.16 984.4,-133.68 973.89,-132.31 975.34,-139.16"/>
</g>
<!-- MulleObjC -->
<g id="node15" class="node">
<title>MulleObjC</title>
<polygon fill="lightgrey" stroke="black" points="1292.5,-279 1200.5,-279 1200.5,-243 1292.5,-243 1292.5,-279"/>
<text text-anchor="middle" x="1246.5" y="-257.3" font-family="Times,serif" font-size="14.00">MulleObjC</text>
</g>
<!-- MulleObjCTimeFoundation&#45;&gt;MulleObjC -->
<g id="edge13" class="edge">
<title>MulleObjCTimeFoundation&#45;&gt;MulleObjC</title>
<path fill="none" stroke="black" d="M1146.57,-247.78C1161.61,-249.79 1176.58,-251.79 1190.16,-253.6"/>
<polygon fill="black" stroke="black" points="1189.88,-257.1 1200.25,-254.95 1190.81,-250.16 1189.88,-257.1"/>
</g>
<!-- mulle&#45;time -->
<g id="node16" class="node">
<title>mulle&#45;time</title>
<polygon fill="lightgrey" stroke="black" points="1293,-225 1200,-225 1200,-189 1293,-189 1293,-225"/>
<text text-anchor="middle" x="1246.5" y="-203.3" font-family="Times,serif" font-size="14.00">mulle&#45;time</text>
</g>
<!-- MulleObjCTimeFoundation&#45;&gt;mulle&#45;time -->
<g id="edge14" class="edge">
<title>MulleObjCTimeFoundation&#45;&gt;mulle&#45;time</title>
<path fill="none" stroke="black" d="M1146.57,-220.22C1161.45,-218.23 1176.27,-216.25 1189.74,-214.45"/>
<polygon fill="black" stroke="black" points="1190.31,-217.91 1199.76,-213.11 1189.38,-210.97 1190.31,-217.91"/>
</g>
</g>
</svg>
