<?xml version="1.0" encoding="UTF-8" standalone="no"?>
<!DOCTYPE svg PUBLIC "-//W3C//DTD SVG 1.1//EN"
 "http://www.w3.org/Graphics/SVG/1.1/DTD/svg11.dtd">
<!-- Generated by graphviz version 2.43.0 (0)
 -->
<!-- Title: sourcetree Pages: 1 -->
<svg width="961pt" height="260pt"
 viewBox="0.00 0.00 960.50 260.00" xmlns="http://www.w3.org/2000/svg" xmlns:xlink="http://www.w3.org/1999/xlink">
<g id="graph0" class="graph" transform="scale(1 1) rotate(0) translate(4 256)">
<title>sourcetree</title>
<polygon fill="white" stroke="transparent" points="-4,4 -4,-256 956.5,-256 956.5,4 -4,4"/>
<!-- MulleObjCCalendarFoundation -->
<g id="node1" class="node">
<title>MulleObjCCalendarFoundation</title>
<polygon fill="yellow" stroke="black" points="403.5,-252 166.5,-252 166.5,-216 403.5,-216 403.5,-252"/>
<text text-anchor="middle" x="285" y="-230.3" font-family="Times,serif" font-size="14.00">MulleObjCCalendarFoundation</text>
</g>
<!-- mulle&#45;objc&#45;list -->
<g id="node2" class="node">
<title>mulle&#45;objc&#45;list</title>
<polygon fill="lightgrey" stroke="black" points="256.5,-180 139.5,-180 139.5,-144 256.5,-144 256.5,-180"/>
<text text-anchor="middle" x="198" y="-158.3" font-family="Times,serif" font-size="14.00">mulle&#45;objc&#45;list</text>
</g>
<!-- MulleObjCCalendarFoundation&#45;&gt;mulle&#45;objc&#45;list -->
<g id="edge1" class="edge">
<title>MulleObjCCalendarFoundation&#45;&gt;mulle&#45;objc&#45;list</title>
<path fill="none" stroke="black" d="M263.49,-215.7C252.54,-206.88 239.05,-196.03 227.18,-186.47"/>
<polygon fill="black" stroke="black" points="229.24,-183.65 219.26,-180.1 224.86,-189.1 229.24,-183.65"/>
</g>
<!-- MulleObjCOSFoundation -->
<g id="node3" class="node">
<title>MulleObjCOSFoundation</title>
<polygon fill="lightgrey" stroke="black" points="469,-180 275,-180 275,-144 469,-144 469,-180"/>
<text text-anchor="middle" x="372" y="-158.3" font-family="Times,serif" font-size="14.00">MulleObjCOSFoundation</text>
</g>
<!-- MulleObjCCalendarFoundation&#45;&gt;MulleObjCOSFoundation -->
<g id="edge2" class="edge">
<title>MulleObjCCalendarFoundation&#45;&gt;MulleObjCOSFoundation</title>
<path fill="none" stroke="black" d="M306.51,-215.7C317.46,-206.88 330.95,-196.03 342.82,-186.47"/>
<polygon fill="black" stroke="black" points="345.14,-189.1 350.74,-180.1 340.76,-183.65 345.14,-189.1"/>
</g>
<!-- src/BSD -->
<g id="node4" class="node">
<title>src/BSD</title>
<polygon fill="lightgrey" stroke="black" points="74,-108 0,-108 0,-72 74,-72 74,-108"/>
<text text-anchor="middle" x="37" y="-86.3" font-family="Times,serif" font-size="14.00">src/BSD</text>
</g>
<!-- MulleObjCOSFoundation&#45;&gt;src/BSD -->
<g id="edge3" class="edge">
<title>MulleObjCOSFoundation&#45;&gt;src/BSD</title>
<path fill="none" stroke="black" d="M274.79,-145.02C210.31,-134.1 130.57,-119.88 84.17,-108.02"/>
<polygon fill="black" stroke="black" points="84.79,-104.57 74.23,-105.37 82.99,-111.33 84.79,-104.57"/>
</g>
<!-- src/Darwin -->
<g id="node5" class="node">
<title>src/Darwin</title>
<polygon fill="lightgrey" stroke="black" points="187.5,-108 92.5,-108 92.5,-72 187.5,-72 187.5,-108"/>
<text text-anchor="middle" x="140" y="-86.3" font-family="Times,serif" font-size="14.00">src/Darwin</text>
</g>
<!-- MulleObjCOSFoundation&#45;&gt;src/Darwin -->
<g id="edge4" class="edge">
<title>MulleObjCOSFoundation&#45;&gt;src/Darwin</title>
<path fill="none" stroke="black" d="M315.54,-143.97C279.74,-133.16 233.56,-119.23 197.56,-108.37"/>
<polygon fill="black" stroke="black" points="198.27,-104.93 187.69,-105.39 196.25,-111.63 198.27,-104.93"/>
</g>
<!-- src/FreeBSD -->
<g id="node6" class="node">
<title>src/FreeBSD</title>
<polygon fill="lightgrey" stroke="black" points="312.5,-108 205.5,-108 205.5,-72 312.5,-72 312.5,-108"/>
<text text-anchor="middle" x="259" y="-86.3" font-family="Times,serif" font-size="14.00">src/FreeBSD</text>
</g>
<!-- MulleObjCOSFoundation&#45;&gt;src/FreeBSD -->
<g id="edge5" class="edge">
<title>MulleObjCOSFoundation&#45;&gt;src/FreeBSD</title>
<path fill="none" stroke="black" d="M344.36,-143.88C329.58,-134.72 311.21,-123.34 295.3,-113.48"/>
<polygon fill="black" stroke="black" points="297.09,-110.48 286.75,-108.19 293.41,-116.43 297.09,-110.48"/>
</g>
<!-- src/Linux -->
<g id="node7" class="node">
<title>src/Linux</title>
<polygon fill="lightgrey" stroke="black" points="413.5,-108 330.5,-108 330.5,-72 413.5,-72 413.5,-108"/>
<text text-anchor="middle" x="372" y="-86.3" font-family="Times,serif" font-size="14.00">src/Linux</text>
</g>
<!-- MulleObjCOSFoundation&#45;&gt;src/Linux -->
<g id="edge6" class="edge">
<title>MulleObjCOSFoundation&#45;&gt;src/Linux</title>
<path fill="none" stroke="black" d="M372,-143.7C372,-135.98 372,-126.71 372,-118.11"/>
<polygon fill="black" stroke="black" points="375.5,-118.1 372,-108.1 368.5,-118.1 375.5,-118.1"/>
</g>
<!-- src/OSBase -->
<g id="node8" class="node">
<title>src/OSBase</title>
<polygon fill="lightgrey" stroke="black" points="530,-108 432,-108 432,-72 530,-72 530,-108"/>
<text text-anchor="middle" x="481" y="-86.3" font-family="Times,serif" font-size="14.00">src/OSBase</text>
</g>
<!-- MulleObjCOSFoundation&#45;&gt;src/OSBase -->
<g id="edge7" class="edge">
<title>MulleObjCOSFoundation&#45;&gt;src/OSBase</title>
<path fill="none" stroke="black" d="M398.66,-143.88C412.78,-134.81 430.31,-123.55 445.56,-113.76"/>
<polygon fill="black" stroke="black" points="447.71,-116.54 454.23,-108.19 443.93,-110.65 447.71,-116.54"/>
</g>
<!-- src/Posix -->
<g id="node9" class="node">
<title>src/Posix</title>
<polygon fill="lightgrey" stroke="black" points="628,-108 548,-108 548,-72 628,-72 628,-108"/>
<text text-anchor="middle" x="588" y="-86.3" font-family="Times,serif" font-size="14.00">src/Posix</text>
</g>
<!-- MulleObjCOSFoundation&#45;&gt;src/Posix -->
<g id="edge8" class="edge">
<title>MulleObjCOSFoundation&#45;&gt;src/Posix</title>
<path fill="none" stroke="black" d="M427.03,-143.94C457.35,-134.45 495.89,-122.23 538.24,-108.21"/>
<polygon fill="black" stroke="black" points="539.53,-111.47 547.92,-105 537.32,-104.83 539.53,-111.47"/>
</g>
<!-- src/Windows -->
<g id="node10" class="node">
<title>src/Windows</title>
<polygon fill="lightgrey" stroke="black" points="753.5,-108 646.5,-108 646.5,-72 753.5,-72 753.5,-108"/>
<text text-anchor="middle" x="700" y="-86.3" font-family="Times,serif" font-size="14.00">src/Windows</text>
</g>
<!-- MulleObjCOSFoundation&#45;&gt;src/Windows -->
<g id="edge9" class="edge">
<title>MulleObjCOSFoundation&#45;&gt;src/Windows</title>
<path fill="none" stroke="black" d="M464.92,-143.98C513.31,-134.74 573.64,-122.65 636.36,-108.07"/>
<polygon fill="black" stroke="black" points="637.51,-111.4 646.44,-105.71 635.91,-104.58 637.51,-111.4"/>
</g>
<!-- mulle&#45;mmap -->
<g id="node11" class="node">
<title>mulle&#45;mmap</title>
<polygon fill="lightgrey" stroke="black" points="247.5,-36 142.5,-36 142.5,0 247.5,0 247.5,-36"/>
<text text-anchor="middle" x="195" y="-14.3" font-family="Times,serif" font-size="14.00">mulle&#45;mmap</text>
</g>
<!-- src/OSBase&#45;&gt;mulle&#45;mmap -->
<g id="edge10" class="edge">
<title>src/OSBase&#45;&gt;mulle&#45;mmap</title>
<path fill="none" stroke="black" d="M431.71,-74.29C428.77,-73.49 425.85,-72.73 423,-72 352.84,-54.14 332.01,-53.97 257.57,-36.06"/>
<polygon fill="black" stroke="black" points="258.26,-32.63 247.71,-33.66 256.6,-39.43 258.26,-32.63"/>
</g>
<!-- MulleObjCLockFoundation -->
<g id="node12" class="node">
<title>MulleObjCLockFoundation</title>
<polygon fill="lightgrey" stroke="black" points="472,-36 266,-36 266,0 472,0 472,-36"/>
<text text-anchor="middle" x="369" y="-14.3" font-family="Times,serif" font-size="14.00">MulleObjCLockFoundation</text>
</g>
<!-- src/OSBase&#45;&gt;MulleObjCLockFoundation -->
<g id="edge11" class="edge">
<title>src/OSBase&#45;&gt;MulleObjCLockFoundation</title>
<path fill="none" stroke="black" d="M453.6,-71.88C439.09,-62.81 421.08,-51.55 405.41,-41.76"/>
<polygon fill="black" stroke="black" points="406.84,-38.52 396.5,-36.19 403.13,-44.46 406.84,-38.52"/>
</g>
<!-- MulleObjCPlistFoundation -->
<g id="node13" class="node">
<title>MulleObjCPlistFoundation</title>
<polygon fill="lightgrey" stroke="black" points="695.5,-36 490.5,-36 490.5,0 695.5,0 695.5,-36"/>
<text text-anchor="middle" x="593" y="-14.3" font-family="Times,serif" font-size="14.00">MulleObjCPlistFoundation</text>
</g>
<!-- src/OSBase&#45;&gt;MulleObjCPlistFoundation -->
<g id="edge12" class="edge">
<title>src/OSBase&#45;&gt;MulleObjCPlistFoundation</title>
<path fill="none" stroke="black" d="M508.4,-71.88C522.91,-62.81 540.92,-51.55 556.59,-41.76"/>
<polygon fill="black" stroke="black" points="558.87,-44.46 565.5,-36.19 555.16,-38.52 558.87,-44.46"/>
</g>
<!-- MulleObjCStandardFoundation -->
<g id="node14" class="node">
<title>MulleObjCStandardFoundation</title>
<polygon fill="lightgrey" stroke="black" points="952.5,-36 713.5,-36 713.5,0 952.5,0 952.5,-36"/>
<text text-anchor="middle" x="833" y="-14.3" font-family="Times,serif" font-size="14.00">MulleObjCStandardFoundation</text>
</g>
<!-- src/OSBase&#45;&gt;MulleObjCStandardFoundation -->
<g id="edge13" class="edge">
<title>src/OSBase&#45;&gt;MulleObjCStandardFoundation</title>
<path fill="none" stroke="black" d="M530.27,-74.17C533.21,-73.41 536.14,-72.67 539,-72 595.55,-58.66 658.91,-46.84 712.29,-37.77"/>
<polygon fill="black" stroke="black" points="713.2,-41.17 722.48,-36.05 712.04,-34.27 713.2,-41.17"/>
</g>
</g>
</svg>
