<?xml version="1.0" encoding="UTF-8" standalone="no"?>
<!DOCTYPE svg PUBLIC "-//W3C//DTD SVG 1.1//EN"
 "http://www.w3.org/Graphics/SVG/1.1/DTD/svg11.dtd">
<!-- Generated by graphviz version 2.43.0 (0)
 -->
<!-- Title: sourcetree Pages: 1 -->
<svg width="942pt" height="1070pt"
 viewBox="0.00 0.00 942.00 1070.00" xmlns="http://www.w3.org/2000/svg" xmlns:xlink="http://www.w3.org/1999/xlink">
<g id="graph0" class="graph" transform="scale(1 1) rotate(0) translate(4 1066)">
<title>sourcetree</title>
<polygon fill="white" stroke="transparent" points="-4,4 -4,-1066 938,-1066 938,4 -4,4"/>
<!-- MulleObjCCalendarFoundation -->
<g id="node1" class="node">
<title>MulleObjCCalendarFoundation</title>
<polygon fill="yellow" stroke="black" points="237,-198 0,-198 0,-162 237,-162 237,-198"/>
<text text-anchor="middle" x="118.5" y="-176.3" font-family="Times,serif" font-size="14.00">MulleObjCCalendarFoundation</text>
</g>
<!-- MulleObjCOSFoundation -->
<g id="node19" class="node">
<title>MulleObjCOSFoundation</title>
<g id="a_node19"><a xlink:href="https://github.com/MulleFoundation/MulleObjCOSFoundation" xlink:title="MulleObjCOSFoundation">
<polygon fill="lightgrey" stroke="black" points="467,-198 273,-198 273,-162 467,-162 467,-198"/>
<text text-anchor="middle" x="370" y="-176.3" font-family="Times,serif" font-size="14.00">MulleObjCOSFoundation</text>
</a>
</g>
</g>
<!-- MulleObjCCalendarFoundation&#45;&gt;MulleObjCOSFoundation -->
<g id="edge13" class="edge">
<title>MulleObjCCalendarFoundation&#45;&gt;MulleObjCOSFoundation</title>
<path fill="none" stroke="black" d="M237.31,-180C245.74,-180 254.22,-180 262.58,-180"/>
<polygon fill="black" stroke="black" points="262.71,-183.5 272.71,-180 262.71,-176.5 262.71,-183.5"/>
</g>
<!-- BSD -->
<g id="node2" class="node">
<title>BSD</title>
<g id="a_node2"><a xlink:href="https://unknown.com/" xlink:title="BSD">
<polygon fill="lightgrey" stroke="black" points="651.5,-360 597.5,-360 597.5,-324 651.5,-324 651.5,-360"/>
<text text-anchor="middle" x="624.5" y="-338.3" font-family="Times,serif" font-size="14.00">BSD</text>
</a>
</g>
</g>
<!-- Darwin -->
<g id="node3" class="node">
<title>Darwin</title>
<g id="a_node3"><a xlink:href="https://unknown.com/" xlink:title="Darwin">
<polygon fill="lightgrey" stroke="black" points="658.5,-306 590.5,-306 590.5,-270 658.5,-270 658.5,-306"/>
<text text-anchor="middle" x="624.5" y="-284.3" font-family="Times,serif" font-size="14.00">Darwin</text>
</a>
</g>
</g>
<!-- FreeBSD -->
<g id="node4" class="node">
<title>FreeBSD</title>
<g id="a_node4"><a xlink:href="https://unknown.com/" xlink:title="FreeBSD">
<polygon fill="lightgrey" stroke="black" points="665,-252 584,-252 584,-216 665,-216 665,-252"/>
<text text-anchor="middle" x="624.5" y="-230.3" font-family="Times,serif" font-size="14.00">FreeBSD</text>
</a>
</g>
</g>
<!-- Linux -->
<g id="node5" class="node">
<title>Linux</title>
<g id="a_node5"><a xlink:href="https://unknown.com/" xlink:title="Linux">
<polygon fill="lightgrey" stroke="black" points="652.5,-198 596.5,-198 596.5,-162 652.5,-162 652.5,-198"/>
<text text-anchor="middle" x="624.5" y="-176.3" font-family="Times,serif" font-size="14.00">Linux</text>
</a>
</g>
</g>
<!-- MulleFoundationBase -->
<g id="node6" class="node">
<title>MulleFoundationBase</title>
<g id="a_node6"><a xlink:href="https://github.com/MulleFoundation/MulleFoundationBase" xlink:title="MulleFoundationBase">
<polygon fill="lightgrey" stroke="black" points="456,-711 284,-711 284,-675 456,-675 456,-711"/>
<text text-anchor="middle" x="370" y="-689.3" font-family="Times,serif" font-size="14.00">MulleFoundationBase</text>
</a>
</g>
</g>
<!-- MulleObjC -->
<g id="node7" class="node">
<title>MulleObjC</title>
<g id="a_node7"><a xlink:href="https://github.com/mulle-objc/MulleObjC" xlink:title="MulleObjC">
<polygon fill="lightgrey" stroke="black" points="670.5,-1008 578.5,-1008 578.5,-972 670.5,-972 670.5,-1008"/>
<text text-anchor="middle" x="624.5" y="-986.3" font-family="Times,serif" font-size="14.00">MulleObjC</text>
</a>
</g>
</g>
<!-- MulleFoundationBase&#45;&gt;MulleObjC -->
<g id="edge1" class="edge">
<title>MulleFoundationBase&#45;&gt;MulleObjC</title>
<path fill="none" stroke="black" d="M374.27,-711.18C384.08,-760.2 418.02,-895.92 503,-963 521.39,-977.51 546.03,-984.56 568.24,-987.86"/>
<polygon fill="black" stroke="black" points="567.88,-991.35 578.24,-989.13 568.76,-984.4 567.88,-991.35"/>
</g>
<!-- MulleObjCArchiverFoundation -->
<g id="node8" class="node">
<title>MulleObjCArchiverFoundation</title>
<g id="a_node8"><a xlink:href="https://github.com/MulleFoundation/MulleObjCArchiverFoundation@*" xlink:title="MulleObjCArchiverFoundation">
<polygon fill="lightgrey" stroke="black" points="741,-954 508,-954 508,-918 741,-918 741,-954"/>
<text text-anchor="middle" x="624.5" y="-932.3" font-family="Times,serif" font-size="14.00">MulleObjCArchiverFoundation</text>
</a>
</g>
</g>
<!-- MulleFoundationBase&#45;&gt;MulleObjCArchiverFoundation -->
<g id="edge2" class="edge">
<title>MulleFoundationBase&#45;&gt;MulleObjCArchiverFoundation</title>
<path fill="none" stroke="black" d="M376.61,-711.19C390.56,-753.23 431,-857.45 503,-909 504.91,-910.37 506.88,-911.67 508.9,-912.91"/>
<polygon fill="black" stroke="black" points="507.59,-916.18 518.04,-917.93 510.96,-910.04 507.59,-916.18"/>
</g>
<!-- MulleObjCContainerFoundation -->
<g id="node9" class="node">
<title>MulleObjCContainerFoundation</title>
<g id="a_node9"><a xlink:href="https://github.com/MulleFoundation/MulleObjCContainerFoundation@*" xlink:title="MulleObjCContainerFoundation">
<polygon fill="lightgrey" stroke="black" points="746,-900 503,-900 503,-864 746,-864 746,-900"/>
<text text-anchor="middle" x="624.5" y="-878.3" font-family="Times,serif" font-size="14.00">MulleObjCContainerFoundation</text>
</a>
</g>
</g>
<!-- MulleFoundationBase&#45;&gt;MulleObjCContainerFoundation -->
<g id="edge3" class="edge">
<title>MulleFoundationBase&#45;&gt;MulleObjCContainerFoundation</title>
<path fill="none" stroke="black" d="M380.37,-711.18C398.89,-745.18 443.6,-818.27 503,-855 505.65,-856.64 508.39,-858.18 511.19,-859.62"/>
<polygon fill="black" stroke="black" points="509.83,-862.85 520.37,-863.93 512.8,-856.51 509.83,-862.85"/>
</g>
<!-- MulleObjCKVCFoundation -->
<g id="node10" class="node">
<title>MulleObjCKVCFoundation</title>
<g id="a_node10"><a xlink:href="https://github.com/MulleFoundation/MulleObjCKVCFoundation@*" xlink:title="MulleObjCKVCFoundation">
<polygon fill="lightgrey" stroke="black" points="726,-846 523,-846 523,-810 726,-810 726,-846"/>
<text text-anchor="middle" x="624.5" y="-824.3" font-family="Times,serif" font-size="14.00">MulleObjCKVCFoundation</text>
</a>
</g>
</g>
<!-- MulleFoundationBase&#45;&gt;MulleObjCKVCFoundation -->
<g id="edge4" class="edge">
<title>MulleFoundationBase&#45;&gt;MulleObjCKVCFoundation</title>
<path fill="none" stroke="black" d="M387.89,-711.37C411.32,-735.7 456.14,-778.19 503,-801 507.01,-802.95 511.17,-804.77 515.42,-806.45"/>
<polygon fill="black" stroke="black" points="514.26,-809.76 524.85,-809.94 516.69,-803.19 514.26,-809.76"/>
</g>
<!-- MulleObjCLockFoundation -->
<g id="node11" class="node">
<title>MulleObjCLockFoundation</title>
<g id="a_node11"><a xlink:href="https://github.com/MulleFoundation/MulleObjCLockFoundation@*" xlink:title="MulleObjCLockFoundation">
<polygon fill="lightgrey" stroke="black" points="727.5,-792 521.5,-792 521.5,-756 727.5,-756 727.5,-792"/>
<text text-anchor="middle" x="624.5" y="-770.3" font-family="Times,serif" font-size="14.00">MulleObjCLockFoundation</text>
</a>
</g>
</g>
<!-- MulleFoundationBase&#45;&gt;MulleObjCLockFoundation -->
<g id="edge5" class="edge">
<title>MulleFoundationBase&#45;&gt;MulleObjCLockFoundation</title>
<path fill="none" stroke="black" d="M410.22,-711.07C436.15,-722.51 471.11,-736.98 503,-747 510.11,-749.23 517.51,-751.36 525,-753.36"/>
<polygon fill="black" stroke="black" points="524.3,-756.8 534.86,-755.93 526.06,-750.02 524.3,-756.8"/>
</g>
<!-- MulleObjCMathFoundation -->
<g id="node12" class="node">
<title>MulleObjCMathFoundation</title>
<g id="a_node12"><a xlink:href="https://github.com/MulleFoundation/MulleObjCMathFoundation@*" xlink:title="MulleObjCMathFoundation">
<polygon fill="lightgrey" stroke="black" points="729.5,-738 519.5,-738 519.5,-702 729.5,-702 729.5,-738"/>
<text text-anchor="middle" x="624.5" y="-716.3" font-family="Times,serif" font-size="14.00">MulleObjCMathFoundation</text>
</a>
</g>
</g>
<!-- MulleFoundationBase&#45;&gt;MulleObjCMathFoundation -->
<g id="edge6" class="edge">
<title>MulleFoundationBase&#45;&gt;MulleObjCMathFoundation</title>
<path fill="none" stroke="black" d="M456.13,-702.1C473.13,-703.92 491.24,-705.86 509.03,-707.76"/>
<polygon fill="black" stroke="black" points="509.15,-711.29 519.46,-708.88 509.89,-704.33 509.15,-711.29"/>
</g>
<!-- MulleObjCPlistFoundation -->
<g id="node13" class="node">
<title>MulleObjCPlistFoundation</title>
<g id="a_node13"><a xlink:href="https://github.com/MulleFoundation/MulleObjCPlistFoundation@*" xlink:title="MulleObjCPlistFoundation">
<polygon fill="lightgrey" stroke="black" points="727,-684 522,-684 522,-648 727,-648 727,-684"/>
<text text-anchor="middle" x="624.5" y="-662.3" font-family="Times,serif" font-size="14.00">MulleObjCPlistFoundation</text>
</a>
</g>
</g>
<!-- MulleFoundationBase&#45;&gt;MulleObjCPlistFoundation -->
<g id="edge7" class="edge">
<title>MulleFoundationBase&#45;&gt;MulleObjCPlistFoundation</title>
<path fill="none" stroke="black" d="M456.13,-683.9C473.97,-681.99 493.04,-679.95 511.69,-677.96"/>
<polygon fill="black" stroke="black" points="512.12,-681.43 521.69,-676.89 511.37,-674.47 512.12,-681.43"/>
</g>
<!-- MulleObjCStandardFoundation -->
<g id="node14" class="node">
<title>MulleObjCStandardFoundation</title>
<g id="a_node14"><a xlink:href="https://github.com/MulleFoundation/MulleObjCStandardFoundation@*" xlink:title="MulleObjCStandardFoundation">
<polygon fill="lightgrey" stroke="black" points="744,-630 505,-630 505,-594 744,-594 744,-630"/>
<text text-anchor="middle" x="624.5" y="-608.3" font-family="Times,serif" font-size="14.00">MulleObjCStandardFoundation</text>
</a>
</g>
</g>
<!-- MulleFoundationBase&#45;&gt;MulleObjCStandardFoundation -->
<g id="edge8" class="edge">
<title>MulleFoundationBase&#45;&gt;MulleObjCStandardFoundation</title>
<path fill="none" stroke="black" d="M410.22,-674.93C436.15,-663.49 471.11,-649.02 503,-639 510.11,-636.77 517.51,-634.64 525,-632.64"/>
<polygon fill="black" stroke="black" points="526.06,-635.98 534.86,-630.07 524.3,-629.2 526.06,-635.98"/>
</g>
<!-- MulleObjCTimeFoundation -->
<g id="node15" class="node">
<title>MulleObjCTimeFoundation</title>
<g id="a_node15"><a xlink:href="https://github.com/MulleFoundation/MulleObjCTimeFoundation@*" xlink:title="MulleObjCTimeFoundation">
<polygon fill="lightgrey" stroke="black" points="728.5,-576 520.5,-576 520.5,-540 728.5,-540 728.5,-576"/>
<text text-anchor="middle" x="624.5" y="-554.3" font-family="Times,serif" font-size="14.00">MulleObjCTimeFoundation</text>
</a>
</g>
</g>
<!-- MulleFoundationBase&#45;&gt;MulleObjCTimeFoundation -->
<g id="edge9" class="edge">
<title>MulleFoundationBase&#45;&gt;MulleObjCTimeFoundation</title>
<path fill="none" stroke="black" d="M387.89,-674.63C411.32,-650.3 456.14,-607.81 503,-585 507.01,-583.05 511.17,-581.23 515.42,-579.55"/>
<polygon fill="black" stroke="black" points="516.69,-582.81 524.85,-576.06 514.26,-576.24 516.69,-582.81"/>
</g>
<!-- MulleObjCUnicodeFoundation -->
<g id="node16" class="node">
<title>MulleObjCUnicodeFoundation</title>
<g id="a_node16"><a xlink:href="https://github.com/MulleFoundation/MulleObjCUnicodeFoundation@*" xlink:title="MulleObjCUnicodeFoundation">
<polygon fill="lightgrey" stroke="black" points="740,-522 509,-522 509,-486 740,-486 740,-522"/>
<text text-anchor="middle" x="624.5" y="-500.3" font-family="Times,serif" font-size="14.00">MulleObjCUnicodeFoundation</text>
</a>
</g>
</g>
<!-- MulleFoundationBase&#45;&gt;MulleObjCUnicodeFoundation -->
<g id="edge10" class="edge">
<title>MulleFoundationBase&#45;&gt;MulleObjCUnicodeFoundation</title>
<path fill="none" stroke="black" d="M380.37,-674.82C398.89,-640.82 443.6,-567.73 503,-531 505.65,-529.36 508.39,-527.82 511.19,-526.38"/>
<polygon fill="black" stroke="black" points="512.8,-529.49 520.37,-522.07 509.83,-523.15 512.8,-529.49"/>
</g>
<!-- MulleObjCUUIDFoundation -->
<g id="node17" class="node">
<title>MulleObjCUUIDFoundation</title>
<g id="a_node17"><a xlink:href="https://github.com/MulleFoundation/MulleObjCUUIDFoundation@*" xlink:title="MulleObjCUUIDFoundation">
<polygon fill="lightgrey" stroke="black" points="731,-468 518,-468 518,-432 731,-432 731,-468"/>
<text text-anchor="middle" x="624.5" y="-446.3" font-family="Times,serif" font-size="14.00">MulleObjCUUIDFoundation</text>
</a>
</g>
</g>
<!-- MulleFoundationBase&#45;&gt;MulleObjCUUIDFoundation -->
<g id="edge11" class="edge">
<title>MulleFoundationBase&#45;&gt;MulleObjCUUIDFoundation</title>
<path fill="none" stroke="black" d="M376.61,-674.81C390.56,-632.77 431,-528.55 503,-477 504.91,-475.63 506.88,-474.33 508.9,-473.09"/>
<polygon fill="black" stroke="black" points="510.96,-475.96 518.04,-468.07 507.59,-469.82 510.96,-475.96"/>
</g>
<!-- MulleObjCValueFoundation -->
<g id="node18" class="node">
<title>MulleObjCValueFoundation</title>
<g id="a_node18"><a xlink:href="https://github.com/MulleFoundation/MulleObjCValueFoundation@*" xlink:title="MulleObjCValueFoundation">
<polygon fill="lightgrey" stroke="black" points="730.5,-414 518.5,-414 518.5,-378 730.5,-378 730.5,-414"/>
<text text-anchor="middle" x="624.5" y="-392.3" font-family="Times,serif" font-size="14.00">MulleObjCValueFoundation</text>
</a>
</g>
</g>
<!-- MulleFoundationBase&#45;&gt;MulleObjCValueFoundation -->
<g id="edge12" class="edge">
<title>MulleFoundationBase&#45;&gt;MulleObjCValueFoundation</title>
<path fill="none" stroke="black" d="M374.27,-674.82C384.08,-625.8 418.02,-490.08 503,-423 505.06,-421.37 507.2,-419.84 509.41,-418.39"/>
<polygon fill="black" stroke="black" points="511.35,-421.31 518.22,-413.25 507.82,-415.27 511.35,-421.31"/>
</g>
<!-- mulle&#45;objc&#45;cc -->
<g id="node20" class="node">
<title>mulle&#45;objc&#45;cc</title>
<g id="a_node20"><a xlink:href="https://github.com/mulle-cc/mulle-objc-cc" xlink:title="mulle&#45;objc&#45;cc">
<polygon fill="lightgrey" stroke="black" points="913,-1062 803,-1062 803,-1026 913,-1026 913,-1062"/>
<text text-anchor="middle" x="858" y="-1040.3" font-family="Times,serif" font-size="14.00">mulle&#45;objc&#45;cc</text>
</a>
</g>
</g>
<!-- MulleObjC&#45;&gt;mulle&#45;objc&#45;cc -->
<g id="edge14" class="edge">
<title>MulleObjC&#45;&gt;mulle&#45;objc&#45;cc</title>
<path fill="none" stroke="black" d="M670.69,-1000.54C705.47,-1008.65 754.01,-1019.98 792.82,-1029.03"/>
<polygon fill="black" stroke="black" points="792.45,-1032.54 802.98,-1031.4 794.04,-1025.72 792.45,-1032.54"/>
</g>
<!-- mulle&#45;objc&#45;debug -->
<g id="node21" class="node">
<title>mulle&#45;objc&#45;debug</title>
<g id="a_node21"><a xlink:href="https://github.com/mulle-objc/mulle-objc-debug" xlink:title="mulle&#45;objc&#45;debug">
<polygon fill="lightgrey" stroke="black" points="927.5,-1008 788.5,-1008 788.5,-972 927.5,-972 927.5,-1008"/>
<text text-anchor="middle" x="858" y="-986.3" font-family="Times,serif" font-size="14.00">mulle&#45;objc&#45;debug</text>
</a>
</g>
</g>
<!-- MulleObjC&#45;&gt;mulle&#45;objc&#45;debug -->
<g id="edge15" class="edge">
<title>MulleObjC&#45;&gt;mulle&#45;objc&#45;debug</title>
<path fill="none" stroke="black" d="M670.69,-990C701.1,-990 742.04,-990 777.79,-990"/>
<polygon fill="black" stroke="black" points="778.21,-993.5 788.21,-990 778.21,-986.5 778.21,-993.5"/>
</g>
<!-- mulle&#45;objc&#45;runtime -->
<g id="node22" class="node">
<title>mulle&#45;objc&#45;runtime</title>
<g id="a_node22"><a xlink:href="https://github.com/mulle-objc/mulle-objc-runtime" xlink:title="mulle&#45;objc&#45;runtime">
<polygon fill="lightgrey" stroke="black" points="934,-954 782,-954 782,-918 934,-918 934,-954"/>
<text text-anchor="middle" x="858" y="-932.3" font-family="Times,serif" font-size="14.00">mulle&#45;objc&#45;runtime</text>
</a>
</g>
</g>
<!-- MulleObjC&#45;&gt;mulle&#45;objc&#45;runtime -->
<g id="edge16" class="edge">
<title>MulleObjC&#45;&gt;mulle&#45;objc&#45;runtime</title>
<path fill="none" stroke="black" d="M670.75,-980.07C693.37,-975.05 721.16,-968.8 746,-963 755.03,-960.89 764.46,-958.65 773.85,-956.4"/>
<polygon fill="black" stroke="black" points="774.7,-959.79 783.6,-954.05 773.06,-952.99 774.7,-959.79"/>
</g>
<!-- MulleObjCOSFoundation&#45;&gt;BSD -->
<g id="edge17" class="edge">
<title>MulleObjCOSFoundation&#45;&gt;BSD</title>
<path fill="none" stroke="black" d="M383.27,-198.1C404.19,-227.5 449.75,-285.31 503,-315 528.89,-329.43 561.96,-336.15 586.9,-339.28"/>
<polygon fill="black" stroke="black" points="586.72,-342.78 597.05,-340.41 587.5,-335.82 586.72,-342.78"/>
</g>
<!-- MulleObjCOSFoundation&#45;&gt;Darwin -->
<g id="edge18" class="edge">
<title>MulleObjCOSFoundation&#45;&gt;Darwin</title>
<path fill="none" stroke="black" d="M395,-198.12C420.5,-216.54 462.64,-244.63 503,-261 527.75,-271.04 556.94,-277.7 580.4,-281.9"/>
<polygon fill="black" stroke="black" points="579.95,-285.37 590.4,-283.6 581.13,-278.47 579.95,-285.37"/>
</g>
<!-- MulleObjCOSFoundation&#45;&gt;FreeBSD -->
<g id="edge19" class="edge">
<title>MulleObjCOSFoundation&#45;&gt;FreeBSD</title>
<path fill="none" stroke="black" d="M455.43,-198.06C494.67,-206.45 539.98,-216.14 573.66,-223.34"/>
<polygon fill="black" stroke="black" points="573.21,-226.82 583.72,-225.49 574.68,-219.98 573.21,-226.82"/>
</g>
<!-- MulleObjCOSFoundation&#45;&gt;Linux -->
<g id="edge20" class="edge">
<title>MulleObjCOSFoundation&#45;&gt;Linux</title>
<path fill="none" stroke="black" d="M467.18,-180C508.75,-180 554.94,-180 586.26,-180"/>
<polygon fill="black" stroke="black" points="586.28,-183.5 596.28,-180 586.28,-176.5 586.28,-183.5"/>
</g>
<!-- OSBase -->
<g id="node23" class="node">
<title>OSBase</title>
<g id="a_node23"><a xlink:href="https://unknown.com/" xlink:title="OSBase">
<polygon fill="lightgrey" stroke="black" points="660.5,-144 588.5,-144 588.5,-108 660.5,-108 660.5,-144"/>
<text text-anchor="middle" x="624.5" y="-122.3" font-family="Times,serif" font-size="14.00">OSBase</text>
</a>
</g>
</g>
<!-- MulleObjCOSFoundation&#45;&gt;OSBase -->
<g id="edge21" class="edge">
<title>MulleObjCOSFoundation&#45;&gt;OSBase</title>
<path fill="none" stroke="black" d="M455.43,-161.94C496.49,-153.16 544.19,-142.96 578.27,-135.67"/>
<polygon fill="black" stroke="black" points="579.34,-139.02 588.38,-133.51 577.87,-132.18 579.34,-139.02"/>
</g>
<!-- Posix -->
<g id="node24" class="node">
<title>Posix</title>
<g id="a_node24"><a xlink:href="https://unknown.com/" xlink:title="Posix">
<polygon fill="lightgrey" stroke="black" points="651.5,-90 597.5,-90 597.5,-54 651.5,-54 651.5,-90"/>
<text text-anchor="middle" x="624.5" y="-68.3" font-family="Times,serif" font-size="14.00">Posix</text>
</a>
</g>
</g>
<!-- MulleObjCOSFoundation&#45;&gt;Posix -->
<g id="edge22" class="edge">
<title>MulleObjCOSFoundation&#45;&gt;Posix</title>
<path fill="none" stroke="black" d="M395,-161.88C420.5,-143.46 462.64,-115.37 503,-99 530.29,-87.93 562.99,-80.96 587.44,-76.89"/>
<polygon fill="black" stroke="black" points="588.04,-80.34 597.37,-75.31 586.94,-73.42 588.04,-80.34"/>
</g>
<!-- Windows -->
<g id="node25" class="node">
<title>Windows</title>
<g id="a_node25"><a xlink:href="https://unknown.com/" xlink:title="Windows">
<polygon fill="lightgrey" stroke="black" points="665,-36 584,-36 584,0 665,0 665,-36"/>
<text text-anchor="middle" x="624.5" y="-14.3" font-family="Times,serif" font-size="14.00">Windows</text>
</a>
</g>
</g>
<!-- MulleObjCOSFoundation&#45;&gt;Windows -->
<g id="edge23" class="edge">
<title>MulleObjCOSFoundation&#45;&gt;Windows</title>
<path fill="none" stroke="black" d="M383.27,-161.9C404.19,-132.5 449.75,-74.69 503,-45 524.52,-33.01 550.99,-26.34 573.64,-22.63"/>
<polygon fill="black" stroke="black" points="574.37,-26.06 583.75,-21.13 573.34,-19.14 574.37,-26.06"/>
</g>
<!-- src/OSBase -->
<g id="node26" class="node">
<title>src/OSBase</title>
<polygon fill="lightgrey" stroke="black" points="167.5,-711 69.5,-711 69.5,-675 167.5,-675 167.5,-711"/>
<text text-anchor="middle" x="118.5" y="-689.3" font-family="Times,serif" font-size="14.00">src/OSBase</text>
</g>
<!-- src/OSBase&#45;&gt;MulleFoundationBase -->
<g id="edge24" class="edge">
<title>src/OSBase&#45;&gt;MulleFoundationBase</title>
<path fill="none" stroke="black" d="M167.61,-693C197.7,-693 237.51,-693 273.78,-693"/>
<polygon fill="black" stroke="black" points="273.91,-696.5 283.91,-693 273.91,-689.5 273.91,-696.5"/>
</g>
</g>
</svg>
